<mxfile host="app.diagrams.net" agent="Mozilla/5.0 (Macintosh; Intel Mac OS X 10_15_7) AppleWebKit/605.1.15 (KHTML, like Gecko) Version/17.5 Safari/605.1.15" version="26.2.13">
  <diagram name="Page-1" id="iaqkxKbQGETAVm_1F8kT">
    <mxGraphModel dx="1354" dy="971" grid="1" gridSize="10" guides="1" tooltips="1" connect="1" arrows="1" fold="1" page="1" pageScale="1" pageWidth="4681" pageHeight="3300" math="0" shadow="0">
      <root>
        <mxCell id="0" />
        <mxCell id="1" parent="0" />
        <mxCell id="b_wKj9JltNZuxFYUiS2_-1" value="哈囉! 我是承亞!" style="rounded=0;whiteSpace=wrap;html=1;" parent="1" vertex="1">
          <mxGeometry x="100" y="40" width="120" height="60" as="geometry" />
        </mxCell>
        <mxCell id="boLSGg1O9lOMq27Us6mc-1" value="晚上開工!" style="rounded=0;whiteSpace=wrap;html=1;" parent="1" vertex="1">
          <mxGeometry x="240" y="40" width="120" height="60" as="geometry" />
        </mxCell>
        <mxCell id="X5ChvStMpa559fqVYQ4e-14" style="edgeStyle=orthogonalEdgeStyle;rounded=0;orthogonalLoop=1;jettySize=auto;html=1;exitX=1;exitY=0.5;exitDx=0;exitDy=0;entryX=0;entryY=0.5;entryDx=0;entryDy=0;" edge="1" parent="1" source="X5ChvStMpa559fqVYQ4e-3" target="X5ChvStMpa559fqVYQ4e-6">
          <mxGeometry relative="1" as="geometry" />
        </mxCell>
        <mxCell id="X5ChvStMpa559fqVYQ4e-3" value="UI for Store" style="rounded=1;whiteSpace=wrap;html=1;" vertex="1" parent="1">
          <mxGeometry x="110" y="360" width="120" height="60" as="geometry" />
        </mxCell>
        <mxCell id="X5ChvStMpa559fqVYQ4e-16" style="edgeStyle=orthogonalEdgeStyle;rounded=0;orthogonalLoop=1;jettySize=auto;html=1;exitX=1;exitY=0.5;exitDx=0;exitDy=0;entryX=0;entryY=0.5;entryDx=0;entryDy=0;" edge="1" parent="1" source="X5ChvStMpa559fqVYQ4e-4" target="X5ChvStMpa559fqVYQ4e-8">
          <mxGeometry relative="1" as="geometry" />
        </mxCell>
        <mxCell id="X5ChvStMpa559fqVYQ4e-4" value="UI for Customer" style="rounded=1;whiteSpace=wrap;html=1;" vertex="1" parent="1">
          <mxGeometry x="110" y="670" width="120" height="60" as="geometry" />
        </mxCell>
        <mxCell id="X5ChvStMpa559fqVYQ4e-12" style="edgeStyle=orthogonalEdgeStyle;rounded=0;orthogonalLoop=1;jettySize=auto;html=1;exitX=1;exitY=0.5;exitDx=0;exitDy=0;entryX=0;entryY=0.5;entryDx=0;entryDy=0;" edge="1" parent="1" source="X5ChvStMpa559fqVYQ4e-6" target="X5ChvStMpa559fqVYQ4e-11">
          <mxGeometry relative="1" as="geometry" />
        </mxCell>
        <mxCell id="X5ChvStMpa559fqVYQ4e-13" style="edgeStyle=orthogonalEdgeStyle;rounded=0;orthogonalLoop=1;jettySize=auto;html=1;exitX=1;exitY=0.5;exitDx=0;exitDy=0;entryX=0;entryY=0.5;entryDx=0;entryDy=0;" edge="1" parent="1" source="X5ChvStMpa559fqVYQ4e-6" target="X5ChvStMpa559fqVYQ4e-10">
          <mxGeometry relative="1" as="geometry" />
        </mxCell>
        <mxCell id="X5ChvStMpa559fqVYQ4e-48" style="edgeStyle=orthogonalEdgeStyle;rounded=0;orthogonalLoop=1;jettySize=auto;html=1;exitX=1;exitY=0.5;exitDx=0;exitDy=0;entryX=0;entryY=0.5;entryDx=0;entryDy=0;" edge="1" parent="1" source="X5ChvStMpa559fqVYQ4e-6" target="X5ChvStMpa559fqVYQ4e-45">
          <mxGeometry relative="1" as="geometry" />
        </mxCell>
        <mxCell id="X5ChvStMpa559fqVYQ4e-6" value="Load&lt;div&gt;Balancer&lt;/div&gt;" style="rhombus;whiteSpace=wrap;html=1;" vertex="1" parent="1">
          <mxGeometry x="320" y="350" width="80" height="80" as="geometry" />
        </mxCell>
        <mxCell id="X5ChvStMpa559fqVYQ4e-21" style="edgeStyle=orthogonalEdgeStyle;rounded=0;orthogonalLoop=1;jettySize=auto;html=1;exitX=1;exitY=0.5;exitDx=0;exitDy=0;entryX=0;entryY=0.5;entryDx=0;entryDy=0;" edge="1" parent="1" source="X5ChvStMpa559fqVYQ4e-8" target="X5ChvStMpa559fqVYQ4e-17">
          <mxGeometry relative="1" as="geometry" />
        </mxCell>
        <mxCell id="X5ChvStMpa559fqVYQ4e-22" style="edgeStyle=orthogonalEdgeStyle;rounded=0;orthogonalLoop=1;jettySize=auto;html=1;exitX=1;exitY=0.5;exitDx=0;exitDy=0;entryX=0;entryY=0.5;entryDx=0;entryDy=0;" edge="1" parent="1" source="X5ChvStMpa559fqVYQ4e-8" target="X5ChvStMpa559fqVYQ4e-18">
          <mxGeometry relative="1" as="geometry" />
        </mxCell>
        <mxCell id="X5ChvStMpa559fqVYQ4e-37" style="edgeStyle=orthogonalEdgeStyle;rounded=0;orthogonalLoop=1;jettySize=auto;html=1;exitX=1;exitY=0.5;exitDx=0;exitDy=0;entryX=0;entryY=0.5;entryDx=0;entryDy=0;" edge="1" parent="1" source="X5ChvStMpa559fqVYQ4e-8" target="X5ChvStMpa559fqVYQ4e-33">
          <mxGeometry relative="1" as="geometry" />
        </mxCell>
        <mxCell id="X5ChvStMpa559fqVYQ4e-8" value="Load&lt;div&gt;Balancer&lt;/div&gt;" style="rhombus;whiteSpace=wrap;html=1;" vertex="1" parent="1">
          <mxGeometry x="320" y="660" width="80" height="80" as="geometry" />
        </mxCell>
        <mxCell id="X5ChvStMpa559fqVYQ4e-10" value="Store Service" style="rounded=1;whiteSpace=wrap;html=1;" vertex="1" parent="1">
          <mxGeometry x="500" y="140" width="120" height="60" as="geometry" />
        </mxCell>
        <mxCell id="X5ChvStMpa559fqVYQ4e-43" style="edgeStyle=orthogonalEdgeStyle;rounded=0;orthogonalLoop=1;jettySize=auto;html=1;exitX=1;exitY=0.5;exitDx=0;exitDy=0;" edge="1" parent="1" source="X5ChvStMpa559fqVYQ4e-11" target="X5ChvStMpa559fqVYQ4e-42">
          <mxGeometry relative="1" as="geometry" />
        </mxCell>
        <mxCell id="X5ChvStMpa559fqVYQ4e-11" value="Seat Availability Service" style="rounded=1;whiteSpace=wrap;html=1;" vertex="1" parent="1">
          <mxGeometry x="500" y="360" width="120" height="60" as="geometry" />
        </mxCell>
        <mxCell id="X5ChvStMpa559fqVYQ4e-17" value="Search Service" style="rounded=1;whiteSpace=wrap;html=1;" vertex="1" parent="1">
          <mxGeometry x="500" y="562.5" width="120" height="60" as="geometry" />
        </mxCell>
        <mxCell id="X5ChvStMpa559fqVYQ4e-38" style="edgeStyle=orthogonalEdgeStyle;rounded=0;orthogonalLoop=1;jettySize=auto;html=1;exitX=0.5;exitY=1;exitDx=0;exitDy=0;entryX=0.5;entryY=0;entryDx=0;entryDy=0;" edge="1" parent="1" source="X5ChvStMpa559fqVYQ4e-18" target="X5ChvStMpa559fqVYQ4e-19">
          <mxGeometry relative="1" as="geometry" />
        </mxCell>
        <mxCell id="X5ChvStMpa559fqVYQ4e-18" value="Booking Service" style="rounded=1;whiteSpace=wrap;html=1;" vertex="1" parent="1">
          <mxGeometry x="500" y="670" width="120" height="60" as="geometry" />
        </mxCell>
        <mxCell id="X5ChvStMpa559fqVYQ4e-61" style="edgeStyle=orthogonalEdgeStyle;rounded=0;orthogonalLoop=1;jettySize=auto;html=1;exitX=0.5;exitY=1;exitDx=0;exitDy=0;entryX=0.5;entryY=0;entryDx=0;entryDy=0;" edge="1" parent="1" source="X5ChvStMpa559fqVYQ4e-19" target="X5ChvStMpa559fqVYQ4e-20">
          <mxGeometry relative="1" as="geometry" />
        </mxCell>
        <mxCell id="X5ChvStMpa559fqVYQ4e-19" value="Payment Service" style="rounded=1;whiteSpace=wrap;html=1;" vertex="1" parent="1">
          <mxGeometry x="500" y="780" width="120" height="60" as="geometry" />
        </mxCell>
        <mxCell id="X5ChvStMpa559fqVYQ4e-40" style="edgeStyle=orthogonalEdgeStyle;rounded=0;orthogonalLoop=1;jettySize=auto;html=1;exitX=1;exitY=0.5;exitDx=0;exitDy=0;entryX=0;entryY=0.5;entryDx=0;entryDy=0;" edge="1" parent="1" source="X5ChvStMpa559fqVYQ4e-20" target="X5ChvStMpa559fqVYQ4e-39">
          <mxGeometry relative="1" as="geometry" />
        </mxCell>
        <mxCell id="X5ChvStMpa559fqVYQ4e-20" value="Booking Management Service" style="rounded=1;whiteSpace=wrap;html=1;" vertex="1" parent="1">
          <mxGeometry x="485" y="880" width="150" height="60" as="geometry" />
        </mxCell>
        <mxCell id="X5ChvStMpa559fqVYQ4e-25" value="My SQL" style="shape=cylinder3;whiteSpace=wrap;html=1;boundedLbl=1;backgroundOutline=1;size=15;" vertex="1" parent="1">
          <mxGeometry x="720" y="130" width="60" height="80" as="geometry" />
        </mxCell>
        <mxCell id="X5ChvStMpa559fqVYQ4e-26" style="edgeStyle=orthogonalEdgeStyle;rounded=0;orthogonalLoop=1;jettySize=auto;html=1;exitX=1;exitY=0.5;exitDx=0;exitDy=0;entryX=0;entryY=0.5;entryDx=0;entryDy=0;entryPerimeter=0;" edge="1" parent="1" source="X5ChvStMpa559fqVYQ4e-10" target="X5ChvStMpa559fqVYQ4e-25">
          <mxGeometry relative="1" as="geometry" />
        </mxCell>
        <mxCell id="X5ChvStMpa559fqVYQ4e-30" style="edgeStyle=orthogonalEdgeStyle;rounded=0;orthogonalLoop=1;jettySize=auto;html=1;exitX=0;exitY=0.5;exitDx=0;exitDy=0;exitPerimeter=0;" edge="1" parent="1" source="X5ChvStMpa559fqVYQ4e-27" target="X5ChvStMpa559fqVYQ4e-18">
          <mxGeometry relative="1" as="geometry" />
        </mxCell>
        <mxCell id="X5ChvStMpa559fqVYQ4e-41" style="edgeStyle=orthogonalEdgeStyle;rounded=0;orthogonalLoop=1;jettySize=auto;html=1;exitX=0.5;exitY=1;exitDx=0;exitDy=0;exitPerimeter=0;" edge="1" parent="1" source="X5ChvStMpa559fqVYQ4e-27" target="X5ChvStMpa559fqVYQ4e-39">
          <mxGeometry relative="1" as="geometry" />
        </mxCell>
        <mxCell id="X5ChvStMpa559fqVYQ4e-27" value="My SQL" style="shape=cylinder3;whiteSpace=wrap;html=1;boundedLbl=1;backgroundOutline=1;size=15;" vertex="1" parent="1">
          <mxGeometry x="720" y="660" width="60" height="80" as="geometry" />
        </mxCell>
        <mxCell id="X5ChvStMpa559fqVYQ4e-32" style="edgeStyle=orthogonalEdgeStyle;rounded=0;orthogonalLoop=1;jettySize=auto;html=1;exitX=0;exitY=0.5;exitDx=0;exitDy=0;entryX=1;entryY=0.5;entryDx=0;entryDy=0;" edge="1" parent="1" source="X5ChvStMpa559fqVYQ4e-31" target="X5ChvStMpa559fqVYQ4e-17">
          <mxGeometry relative="1" as="geometry" />
        </mxCell>
        <mxCell id="X5ChvStMpa559fqVYQ4e-50" style="edgeStyle=orthogonalEdgeStyle;rounded=0;orthogonalLoop=1;jettySize=auto;html=1;" edge="1" parent="1" source="X5ChvStMpa559fqVYQ4e-31">
          <mxGeometry relative="1" as="geometry">
            <mxPoint x="680" y="592.5000000000002" as="targetPoint" />
          </mxGeometry>
        </mxCell>
        <mxCell id="X5ChvStMpa559fqVYQ4e-31" value="Elasticsearch Service" style="rounded=0;whiteSpace=wrap;html=1;" vertex="1" parent="1">
          <mxGeometry x="720" y="550" width="85" height="85" as="geometry" />
        </mxCell>
        <mxCell id="X5ChvStMpa559fqVYQ4e-33" value="Customer Service" style="rounded=1;whiteSpace=wrap;html=1;" vertex="1" parent="1">
          <mxGeometry x="500" y="460" width="120" height="60" as="geometry" />
        </mxCell>
        <mxCell id="X5ChvStMpa559fqVYQ4e-58" style="edgeStyle=orthogonalEdgeStyle;rounded=0;orthogonalLoop=1;jettySize=auto;html=1;exitX=1;exitY=0.5;exitDx=0;exitDy=0;exitPerimeter=0;" edge="1" parent="1" source="X5ChvStMpa559fqVYQ4e-34" target="X5ChvStMpa559fqVYQ4e-44">
          <mxGeometry relative="1" as="geometry">
            <mxPoint x="920" y="490" as="targetPoint" />
          </mxGeometry>
        </mxCell>
        <mxCell id="X5ChvStMpa559fqVYQ4e-34" value="My SQL" style="shape=cylinder3;whiteSpace=wrap;html=1;boundedLbl=1;backgroundOutline=1;size=15;" vertex="1" parent="1">
          <mxGeometry x="720" y="450" width="60" height="80" as="geometry" />
        </mxCell>
        <mxCell id="X5ChvStMpa559fqVYQ4e-35" style="edgeStyle=orthogonalEdgeStyle;rounded=0;orthogonalLoop=1;jettySize=auto;html=1;exitX=1;exitY=0.5;exitDx=0;exitDy=0;entryX=0;entryY=0.5;entryDx=0;entryDy=0;entryPerimeter=0;" edge="1" parent="1" source="X5ChvStMpa559fqVYQ4e-33" target="X5ChvStMpa559fqVYQ4e-34">
          <mxGeometry relative="1" as="geometry" />
        </mxCell>
        <mxCell id="X5ChvStMpa559fqVYQ4e-39" value="Amazon Redis Service" style="rounded=0;whiteSpace=wrap;html=1;" vertex="1" parent="1">
          <mxGeometry x="707.5" y="867.5" width="85" height="85" as="geometry" />
        </mxCell>
        <mxCell id="X5ChvStMpa559fqVYQ4e-42" value="Amazon Redis Service" style="rounded=0;whiteSpace=wrap;html=1;" vertex="1" parent="1">
          <mxGeometry x="707.5" y="347.5" width="85" height="85" as="geometry" />
        </mxCell>
        <mxCell id="X5ChvStMpa559fqVYQ4e-53" style="edgeStyle=orthogonalEdgeStyle;rounded=0;orthogonalLoop=1;jettySize=auto;html=1;exitX=0;exitY=0.75;exitDx=0;exitDy=0;" edge="1" parent="1" source="X5ChvStMpa559fqVYQ4e-44" target="X5ChvStMpa559fqVYQ4e-52">
          <mxGeometry relative="1" as="geometry" />
        </mxCell>
        <mxCell id="X5ChvStMpa559fqVYQ4e-59" style="edgeStyle=orthogonalEdgeStyle;rounded=0;orthogonalLoop=1;jettySize=auto;html=1;exitX=1;exitY=0.5;exitDx=0;exitDy=0;" edge="1" parent="1" source="X5ChvStMpa559fqVYQ4e-44">
          <mxGeometry relative="1" as="geometry">
            <mxPoint x="1370" y="490.42857142857156" as="targetPoint" />
          </mxGeometry>
        </mxCell>
        <mxCell id="X5ChvStMpa559fqVYQ4e-44" value="KAFKA" style="rounded=0;whiteSpace=wrap;html=1;" vertex="1" parent="1">
          <mxGeometry x="1150" y="315" width="120" height="350" as="geometry" />
        </mxCell>
        <mxCell id="X5ChvStMpa559fqVYQ4e-47" style="edgeStyle=orthogonalEdgeStyle;rounded=0;orthogonalLoop=1;jettySize=auto;html=1;exitX=1;exitY=0.5;exitDx=0;exitDy=0;" edge="1" parent="1" source="X5ChvStMpa559fqVYQ4e-45" target="X5ChvStMpa559fqVYQ4e-46">
          <mxGeometry relative="1" as="geometry" />
        </mxCell>
        <mxCell id="X5ChvStMpa559fqVYQ4e-45" value="Seat Service" style="rounded=1;whiteSpace=wrap;html=1;" vertex="1" parent="1">
          <mxGeometry x="500" y="250" width="120" height="60" as="geometry" />
        </mxCell>
        <mxCell id="X5ChvStMpa559fqVYQ4e-51" style="edgeStyle=orthogonalEdgeStyle;rounded=0;orthogonalLoop=1;jettySize=auto;html=1;exitX=1;exitY=0.5;exitDx=0;exitDy=0;exitPerimeter=0;entryX=0;entryY=0.25;entryDx=0;entryDy=0;" edge="1" parent="1" source="X5ChvStMpa559fqVYQ4e-46" target="X5ChvStMpa559fqVYQ4e-44">
          <mxGeometry relative="1" as="geometry" />
        </mxCell>
        <mxCell id="X5ChvStMpa559fqVYQ4e-46" value="My SQL" style="shape=cylinder3;whiteSpace=wrap;html=1;boundedLbl=1;backgroundOutline=1;size=15;" vertex="1" parent="1">
          <mxGeometry x="720" y="240" width="60" height="80" as="geometry" />
        </mxCell>
        <mxCell id="X5ChvStMpa559fqVYQ4e-49" value="" style="endArrow=classic;startArrow=classic;html=1;rounded=0;entryX=0.5;entryY=1;entryDx=0;entryDy=0;exitX=0.5;exitY=0;exitDx=0;exitDy=0;" edge="1" parent="1" source="X5ChvStMpa559fqVYQ4e-4" target="X5ChvStMpa559fqVYQ4e-3">
          <mxGeometry width="50" height="50" relative="1" as="geometry">
            <mxPoint x="700" y="600" as="sourcePoint" />
            <mxPoint x="750" y="550" as="targetPoint" />
          </mxGeometry>
        </mxCell>
        <mxCell id="X5ChvStMpa559fqVYQ4e-52" value="Archive Service" style="rounded=1;whiteSpace=wrap;html=1;" vertex="1" parent="1">
          <mxGeometry x="920" y="670" width="120" height="60" as="geometry" />
        </mxCell>
        <mxCell id="X5ChvStMpa559fqVYQ4e-54" style="edgeStyle=orthogonalEdgeStyle;rounded=0;orthogonalLoop=1;jettySize=auto;html=1;exitX=0;exitY=0.5;exitDx=0;exitDy=0;entryX=1;entryY=0.5;entryDx=0;entryDy=0;entryPerimeter=0;" edge="1" parent="1" source="X5ChvStMpa559fqVYQ4e-52" target="X5ChvStMpa559fqVYQ4e-27">
          <mxGeometry relative="1" as="geometry" />
        </mxCell>
        <mxCell id="X5ChvStMpa559fqVYQ4e-60" value="Notification Service" style="rounded=1;whiteSpace=wrap;html=1;" vertex="1" parent="1">
          <mxGeometry x="1370" y="460" width="120" height="60" as="geometry" />
        </mxCell>
      </root>
    </mxGraphModel>
  </diagram>
</mxfile>
